<svg xmlns="http://www.w3.org/2000/svg" xmlns:xlink="http://www.w3.org/1999/xlink" width="500" zoomAndPan="magnify" viewBox="0 0 375 119.999999" height="160" preserveAspectRatio="xMidYMid meet" version="1.0"><defs><g/><clipPath id="4f88a391dc"><path d="M 238 47 L 286 47 L 286 65 L 238 65 Z M 238 47 " clip-rule="nonzero"/></clipPath><clipPath id="54367bf35b"><path d="M 238.515625 48.753906 L 285.011719 47.9375 L 285.3125 65.183594 L 238.820312 66.003906 Z M 238.515625 48.753906 " clip-rule="nonzero"/></clipPath><clipPath id="9cde8b7a18"><path d="M 234.816406 47.488281 L 285.058594 46.601562 L 285.375 64.597656 L 235.132812 65.484375 Z M 234.816406 47.488281 " clip-rule="nonzero"/></clipPath></defs><g fill="#dd9b9a" fill-opacity="1"><g transform="translate(56.287683, 110.947339)"><g><path d="M 24.28125 -0.140625 C 26.851562 -0.148438 29.316406 -0.59375 31.671875 -1.46875 C 34.023438 -2.34375 36.148438 -3.546875 38.046875 -5.078125 C 39.953125 -6.617188 41.601562 -8.425781 43 -10.5 C 44.394531 -12.570312 45.382812 -14.769531 45.96875 -17.09375 L 46.0625 -0.25 Z M 28.515625 -62.890625 C 26.960938 -62.878906 25.664062 -62.257812 24.625 -61.03125 C 23.582031 -59.800781 23.066406 -58.441406 23.078125 -56.953125 L 23.09375 -54.609375 L 23.390625 -0.65625 L 23.390625 -0.125 L 2.234375 -0.015625 C 3.734375 -0.0234375 5.003906 -0.644531 6.046875 -1.875 C 7.085938 -3.101562 7.601562 -4.46875 7.59375 -5.96875 L 7.3125 -56.875 C 7.300781 -58.363281 6.769531 -59.71875 5.71875 -60.9375 C 4.664062 -62.15625 3.390625 -62.757812 1.890625 -62.75 L 5.296875 -62.765625 L 23.046875 -62.859375 L 25.015625 -62.875 Z M 28.515625 -62.890625 "/></g></g></g><g fill="#dd9b9a" fill-opacity="1"><g transform="translate(104.588523, 110.681174)"><g><path d="M 11.78125 -25.25 C 9.863281 -25.238281 8.226562 -25.898438 6.875 -27.234375 C 5.53125 -28.578125 4.851562 -30.203125 4.84375 -32.109375 C 4.832031 -33.609375 5.269531 -35.078125 6.15625 -36.515625 C 7.039062 -37.953125 8.195312 -39.238281 9.625 -40.375 C 11.0625 -41.519531 12.671875 -42.484375 14.453125 -43.265625 C 16.242188 -44.054688 18.035156 -44.550781 19.828125 -44.75 C 18.210938 -44.5 16.972656 -44.007812 16.109375 -43.28125 C 15.253906 -42.5625 14.832031 -41.722656 14.84375 -40.765625 C 14.84375 -40.109375 15.019531 -39.46875 15.375 -38.84375 C 15.738281 -38.226562 16.191406 -37.585938 16.734375 -36.921875 C 18.054688 -35.742188 18.722656 -34.164062 18.734375 -32.1875 C 18.742188 -30.28125 18.0625 -28.648438 16.6875 -27.296875 C 15.320312 -25.941406 13.6875 -25.257812 11.78125 -25.25 Z M 38.953125 -6.9375 C 38.953125 -5.863281 39.3125 -4.820312 40.03125 -3.8125 C 40.757812 -2.800781 41.628906 -2.207031 42.640625 -2.03125 L 27.25 0.296875 L 27.0625 0.296875 C 26.582031 0.304688 26.191406 0.160156 25.890625 -0.140625 C 25.597656 -0.441406 25.453125 -0.832031 25.453125 -1.3125 L 25.4375 -2.109375 L 25.375 -15.375 L 25.34375 -20.75 L 25.3125 -26.765625 L 25.296875 -27.203125 C 24.585938 -26.847656 23.707031 -26.394531 22.65625 -25.84375 C 21.613281 -25.300781 20.601562 -24.578125 19.625 -23.671875 C 18.644531 -22.773438 17.785156 -21.640625 17.046875 -20.265625 C 16.316406 -18.890625 15.867188 -17.15625 15.703125 -15.0625 C 15.523438 -12.894531 15.695312 -10.992188 16.21875 -9.359375 C 16.738281 -7.722656 17.476562 -6.398438 18.4375 -5.390625 C 19.394531 -4.378906 20.53125 -3.664062 21.84375 -3.25 C 23.164062 -2.84375 24.304688 -2.878906 25.265625 -3.359375 C 24.179688 -2.578125 22.742188 -1.757812 20.953125 -0.90625 C 19.171875 -0.0625 17.054688 0.363281 14.609375 0.375 C 11.796875 0.382812 9.25 -0.347656 6.96875 -1.828125 C 4.695312 -3.304688 3.222656 -5.300781 2.546875 -7.8125 C 1.828125 -10.382812 2.070312 -12.878906 3.28125 -15.296875 C 4.488281 -17.722656 6.347656 -19.71875 8.859375 -21.28125 C 10.160156 -22.070312 11.75 -22.84375 13.625 -23.59375 C 15.5 -24.351562 17.492188 -25.097656 19.609375 -25.828125 C 21.734375 -26.554688 23.835938 -27.285156 25.921875 -28.015625 C 28.015625 -28.742188 29.910156 -29.53125 31.609375 -30.375 C 33.304688 -31.21875 34.703125 -32.117188 35.796875 -33.078125 C 36.898438 -34.046875 37.476562 -35.128906 37.53125 -36.328125 C 37.59375 -37.035156 37.453125 -37.789062 37.109375 -38.59375 C 36.773438 -39.40625 36.3125 -40.140625 35.71875 -40.796875 C 37.34375 -39.253906 38.335938 -37.46875 38.703125 -35.4375 C 38.765625 -35.195312 38.796875 -34.957031 38.796875 -34.71875 C 38.796875 -34.476562 38.796875 -34.238281 38.796875 -34 L 38.8125 -32.484375 L 38.875 -19.484375 L 38.890625 -16.34375 L 38.9375 -7.921875 Z M 38.953125 -6.9375 "/></g></g></g><g fill="#dd9b9a" fill-opacity="1"><g transform="translate(149.48411, 110.433775)"><g><path d="M 11.90625 -3.203125 C 12.019531 -2.359375 12.539062 -1.597656 13.46875 -0.921875 C 14.40625 -0.242188 15.710938 0.148438 17.390625 0.265625 C 15.296875 0.148438 13.332031 -0.226562 11.5 -0.875 C 9.675781 -1.519531 8.070312 -2.347656 6.6875 -3.359375 C 5.3125 -4.367188 4.21875 -5.539062 3.40625 -6.875 C 2.59375 -8.21875 2.179688 -9.664062 2.171875 -11.21875 C 2.160156 -13.132812 2.828125 -14.765625 4.171875 -16.109375 C 5.515625 -17.460938 7.140625 -18.144531 9.046875 -18.15625 C 10.003906 -18.164062 10.914062 -17.992188 11.78125 -17.640625 C 12.644531 -17.285156 13.394531 -16.789062 14.03125 -16.15625 C 14.664062 -15.53125 15.160156 -14.800781 15.515625 -13.96875 C 15.878906 -13.144531 16.0625 -12.253906 16.0625 -11.296875 C 16.070312 -10.222656 15.851562 -9.21875 15.40625 -8.28125 C 14.96875 -7.351562 14.363281 -6.5625 13.59375 -5.90625 C 13.113281 -5.488281 12.695312 -5.050781 12.34375 -4.59375 C 11.988281 -4.144531 11.84375 -3.679688 11.90625 -3.203125 Z M 35.96875 -12.296875 C 36.09375 -10.503906 35.722656 -8.84375 34.859375 -7.3125 C 34.003906 -5.789062 32.785156 -4.472656 31.203125 -3.359375 C 29.628906 -2.242188 27.796875 -1.347656 25.703125 -0.671875 C 23.617188 -0.00390625 21.414062 0.332031 19.09375 0.34375 C 20.707031 0.332031 22.078125 -0.332031 23.203125 -1.65625 C 24.335938 -2.976562 24.898438 -4.445312 24.890625 -6.0625 C 24.878906 -7.550781 24.316406 -8.992188 23.203125 -10.390625 C 22.085938 -11.796875 20.671875 -13.191406 18.953125 -14.578125 C 17.242188 -15.972656 15.414062 -17.410156 13.46875 -18.890625 C 11.53125 -20.378906 9.703125 -21.925781 7.984375 -23.53125 C 6.273438 -25.132812 4.859375 -26.828125 3.734375 -28.609375 C 2.617188 -30.398438 2.054688 -32.34375 2.046875 -34.4375 C 2.035156 -36.226562 2.503906 -37.78125 3.453125 -39.09375 C 4.410156 -40.414062 5.617188 -41.507812 7.078125 -42.375 C 8.535156 -43.25 10.15625 -43.898438 11.9375 -44.328125 C 13.726562 -44.765625 15.460938 -44.988281 17.140625 -45 C 17.671875 -45 18.160156 -45 18.609375 -45 C 19.054688 -45.007812 19.519531 -44.953125 20 -44.828125 C 18.382812 -45.054688 17 -44.675781 15.84375 -43.6875 C 14.6875 -42.695312 14.113281 -41.21875 14.125 -39.25 C 14.132812 -37.632812 14.648438 -36.140625 15.671875 -34.765625 C 16.691406 -33.398438 17.984375 -32.066406 19.546875 -30.765625 C 21.109375 -29.460938 22.800781 -28.140625 24.625 -26.796875 C 26.457031 -25.460938 28.1875 -24.066406 29.8125 -22.609375 C 31.4375 -21.148438 32.820312 -19.570312 33.96875 -17.875 C 35.113281 -16.1875 35.78125 -14.328125 35.96875 -12.296875 Z M 32.921875 -29.3125 C 32.671875 -30.625 32.285156 -32.097656 31.765625 -33.734375 C 31.242188 -35.378906 30.515625 -36.945312 29.578125 -38.4375 C 28.648438 -39.925781 27.476562 -41.25 26.0625 -42.40625 C 24.65625 -43.5625 22.9375 -44.34375 20.90625 -44.75 C 21.851562 -44.570312 22.734375 -44.363281 23.546875 -44.125 C 24.359375 -43.894531 25.125 -43.664062 25.84375 -43.4375 C 26.5625 -43.207031 27.265625 -43.03125 27.953125 -42.90625 C 28.640625 -42.789062 29.375 -42.765625 30.15625 -42.828125 C 30.625 -42.890625 31.140625 -43.007812 31.703125 -43.1875 C 32.273438 -43.375 32.65625 -43.585938 32.84375 -43.828125 Z M 32.921875 -29.3125 "/></g></g></g><g fill="#dd9b9a" fill-opacity="1"><g transform="translate(187.838022, 110.222423)"><g><path d="M 19.328125 -5.03125 C 19.335938 -3.957031 19.703125 -2.914062 20.421875 -1.90625 C 21.148438 -0.894531 22.019531 -0.300781 23.03125 -0.125 L 17.484375 -0.09375 L 2.234375 -0.015625 C 3.253906 -0.191406 4.117188 -0.789062 4.828125 -1.8125 C 5.546875 -2.832031 5.898438 -3.878906 5.890625 -4.953125 L 5.875 -7.46875 L 5.765625 -27.453125 L 5.671875 -44.484375 L 5.671875 -46.1875 L 5.65625 -49.421875 L 5.625 -54.609375 L 5.609375 -55.59375 C 5.609375 -56.675781 5.242188 -57.722656 4.515625 -58.734375 C 3.796875 -59.742188 2.925781 -60.335938 1.90625 -60.515625 L 17.21875 -62.828125 L 17.484375 -62.828125 C 17.960938 -62.835938 18.335938 -62.691406 18.609375 -62.390625 C 18.878906 -62.097656 19.015625 -61.710938 19.015625 -61.234375 L 19.078125 -49.84375 L 19.125 -42.234375 L 19.125 -41.609375 L 19.3125 -7.546875 Z M 42.90625 -5.15625 C 42.914062 -4.082031 43.28125 -3.039062 44 -2.03125 C 44.71875 -1.019531 45.585938 -0.425781 46.609375 -0.25 L 41.046875 -0.21875 L 25.8125 -0.140625 C 26.820312 -0.328125 27.679688 -0.925781 28.390625 -1.9375 C 29.109375 -2.957031 29.460938 -4.003906 29.453125 -5.078125 L 29.4375 -7.59375 L 29.3125 -31.53125 C 29.300781 -32.664062 29.535156 -33.625 30.015625 -34.40625 C 30.492188 -35.1875 31.03125 -35.890625 31.625 -36.515625 C 32.21875 -37.148438 32.75 -37.78125 33.21875 -38.40625 C 33.6875 -39.039062 33.921875 -39.773438 33.921875 -40.609375 C 33.910156 -41.617188 33.332031 -42.492188 32.1875 -43.234375 C 31.050781 -43.984375 29.585938 -44.351562 27.796875 -44.34375 C 25.890625 -44.332031 24.191406 -44.082031 22.703125 -43.59375 C 21.210938 -43.101562 20.171875 -42.707031 19.578125 -42.40625 C 21.660156 -43.4375 24.03125 -44.210938 26.6875 -44.734375 C 29.34375 -45.253906 31.867188 -45.25 34.265625 -44.71875 C 36.660156 -44.195312 38.671875 -43.015625 40.296875 -41.171875 C 41.921875 -39.335938 42.738281 -36.566406 42.75 -32.859375 L 42.890625 -7.671875 Z M 42.90625 -5.15625 "/></g></g></g><g fill="#dd9b9a" fill-opacity="1"><g transform="translate(236.676543, 109.953296)"><g><path d="M 30.4375 -5.453125 C 32.175781 -5.460938 33.878906 -5.90625 35.546875 -6.78125 C 37.210938 -7.65625 38.664062 -8.875 39.90625 -10.4375 C 38.132812 -7.195312 35.726562 -4.597656 32.6875 -2.640625 C 29.65625 -0.679688 26.316406 0.304688 22.671875 0.328125 C 19.867188 0.335938 17.222656 -0.242188 14.734375 -1.421875 C 12.253906 -2.609375 10.082031 -4.210938 8.21875 -6.234375 C 6.351562 -8.253906 4.875 -10.632812 3.78125 -13.375 C 2.6875 -16.125 2.128906 -19.082031 2.109375 -22.25 C 2.097656 -25.351562 2.625 -28.296875 3.6875 -31.078125 C 4.75 -33.859375 6.195312 -36.269531 8.03125 -38.3125 C 9.875 -40.351562 12.03125 -41.976562 14.5 -43.1875 C 16.976562 -44.40625 19.617188 -45.019531 22.421875 -45.03125 C 21.828125 -44.90625 21.128906 -44.347656 20.328125 -43.359375 C 19.523438 -42.367188 18.769531 -41.0625 18.0625 -39.4375 C 17.351562 -37.820312 16.75 -35.953125 16.25 -33.828125 C 15.757812 -31.710938 15.519531 -29.460938 15.53125 -27.078125 C 15.550781 -24.085938 15.957031 -21.273438 16.75 -18.640625 C 17.539062 -16.015625 18.613281 -13.71875 19.96875 -11.75 C 21.320312 -9.789062 22.894531 -8.25 24.6875 -7.125 C 26.488281 -6 28.40625 -5.441406 30.4375 -5.453125 Z M 29.234375 -29.734375 C 29.222656 -31.523438 29.0625 -33.269531 28.75 -34.96875 C 28.445312 -36.675781 28.050781 -38.21875 27.5625 -39.59375 C 27.070312 -40.96875 26.476562 -42.128906 25.78125 -43.078125 C 25.09375 -44.023438 24.363281 -44.675781 23.59375 -45.03125 C 25.863281 -44.875 27.984375 -44.320312 29.953125 -43.375 C 31.929688 -42.425781 33.703125 -41.175781 35.265625 -39.625 C 36.835938 -38.082031 38.148438 -36.265625 39.203125 -34.171875 C 40.253906 -32.085938 41.023438 -29.828125 41.515625 -27.390625 L 31.21875 -27.328125 L 27.265625 -27.3125 L 26.734375 -27.296875 C 27.390625 -27.304688 27.96875 -27.550781 28.46875 -28.03125 C 28.976562 -28.507812 29.234375 -29.078125 29.234375 -29.734375 Z M 29.234375 -29.734375 "/></g></g></g><g fill="#dd9b9a" fill-opacity="1"><g transform="translate(280.586409, 109.711328)"><g><path d="M 11.90625 -3.203125 C 12.019531 -2.359375 12.539062 -1.597656 13.46875 -0.921875 C 14.40625 -0.242188 15.710938 0.148438 17.390625 0.265625 C 15.296875 0.148438 13.332031 -0.226562 11.5 -0.875 C 9.675781 -1.519531 8.070312 -2.347656 6.6875 -3.359375 C 5.3125 -4.367188 4.21875 -5.539062 3.40625 -6.875 C 2.59375 -8.21875 2.179688 -9.664062 2.171875 -11.21875 C 2.160156 -13.132812 2.828125 -14.765625 4.171875 -16.109375 C 5.515625 -17.460938 7.140625 -18.144531 9.046875 -18.15625 C 10.003906 -18.164062 10.914062 -17.992188 11.78125 -17.640625 C 12.644531 -17.285156 13.394531 -16.789062 14.03125 -16.15625 C 14.664062 -15.53125 15.160156 -14.800781 15.515625 -13.96875 C 15.878906 -13.144531 16.0625 -12.253906 16.0625 -11.296875 C 16.070312 -10.222656 15.851562 -9.21875 15.40625 -8.28125 C 14.96875 -7.351562 14.363281 -6.5625 13.59375 -5.90625 C 13.113281 -5.488281 12.695312 -5.050781 12.34375 -4.59375 C 11.988281 -4.144531 11.84375 -3.679688 11.90625 -3.203125 Z M 35.96875 -12.296875 C 36.09375 -10.503906 35.722656 -8.84375 34.859375 -7.3125 C 34.003906 -5.789062 32.785156 -4.472656 31.203125 -3.359375 C 29.628906 -2.242188 27.796875 -1.347656 25.703125 -0.671875 C 23.617188 -0.00390625 21.414062 0.332031 19.09375 0.34375 C 20.707031 0.332031 22.078125 -0.332031 23.203125 -1.65625 C 24.335938 -2.976562 24.898438 -4.445312 24.890625 -6.0625 C 24.878906 -7.550781 24.316406 -8.992188 23.203125 -10.390625 C 22.085938 -11.796875 20.671875 -13.191406 18.953125 -14.578125 C 17.242188 -15.972656 15.414062 -17.410156 13.46875 -18.890625 C 11.53125 -20.378906 9.703125 -21.925781 7.984375 -23.53125 C 6.273438 -25.132812 4.859375 -26.828125 3.734375 -28.609375 C 2.617188 -30.398438 2.054688 -32.34375 2.046875 -34.4375 C 2.035156 -36.226562 2.503906 -37.78125 3.453125 -39.09375 C 4.410156 -40.414062 5.617188 -41.507812 7.078125 -42.375 C 8.535156 -43.25 10.15625 -43.898438 11.9375 -44.328125 C 13.726562 -44.765625 15.460938 -44.988281 17.140625 -45 C 17.671875 -45 18.160156 -45 18.609375 -45 C 19.054688 -45.007812 19.519531 -44.953125 20 -44.828125 C 18.382812 -45.054688 17 -44.675781 15.84375 -43.6875 C 14.6875 -42.695312 14.113281 -41.21875 14.125 -39.25 C 14.132812 -37.632812 14.648438 -36.140625 15.671875 -34.765625 C 16.691406 -33.398438 17.984375 -32.066406 19.546875 -30.765625 C 21.109375 -29.460938 22.800781 -28.140625 24.625 -26.796875 C 26.457031 -25.460938 28.1875 -24.066406 29.8125 -22.609375 C 31.4375 -21.148438 32.820312 -19.570312 33.96875 -17.875 C 35.113281 -16.1875 35.78125 -14.328125 35.96875 -12.296875 Z M 32.921875 -29.3125 C 32.671875 -30.625 32.285156 -32.097656 31.765625 -33.734375 C 31.242188 -35.378906 30.515625 -36.945312 29.578125 -38.4375 C 28.648438 -39.925781 27.476562 -41.25 26.0625 -42.40625 C 24.65625 -43.5625 22.9375 -44.34375 20.90625 -44.75 C 21.851562 -44.570312 22.734375 -44.363281 23.546875 -44.125 C 24.359375 -43.894531 25.125 -43.664062 25.84375 -43.4375 C 26.5625 -43.207031 27.265625 -43.03125 27.953125 -42.90625 C 28.640625 -42.789062 29.375 -42.765625 30.15625 -42.828125 C 30.625 -42.890625 31.140625 -43.007812 31.703125 -43.1875 C 32.273438 -43.375 32.65625 -43.585938 32.84375 -43.828125 Z M 32.921875 -29.3125 "/></g></g></g><g clip-path="url(#4f88a391dc)"><g clip-path="url(#54367bf35b)"><g clip-path="url(#9cde8b7a18)"><path fill="#59371c" d="M 276 64.179688 C 275.839844 64.1875 275.679688 64.195312 275.519531 64.195312 C 275.671875 64.152344 275.820312 64.109375 275.96875 64.058594 C 276.171875 64 276.371094 63.929688 276.574219 63.855469 C 276.84375 63.757812 277.113281 63.632812 277.382812 63.519531 C 277.648438 63.386719 277.917969 63.265625 278.179688 63.113281 C 278.707031 62.828125 279.222656 62.496094 279.726562 62.121094 C 280.742188 61.386719 281.710938 60.480469 282.640625 59.480469 C 283.566406 58.480469 284.476562 57.386719 285.234375 56.226562 C 284.421875 57.355469 283.472656 58.402344 282.523438 59.347656 C 281.5625 60.285156 280.578125 61.113281 279.5625 61.765625 C 279.054688 62.097656 278.542969 62.386719 278.019531 62.628906 C 277.761719 62.757812 277.496094 62.859375 277.234375 62.96875 C 276.972656 63.0625 276.707031 63.164062 276.441406 63.242188 C 275.515625 63.519531 274.578125 63.679688 273.636719 63.734375 C 273.574219 63.699219 273.515625 63.667969 273.453125 63.632812 C 273.617188 63.613281 273.78125 63.585938 273.945312 63.554688 C 274.730469 63.402344 275.5 63.148438 276.242188 62.789062 C 276.988281 62.433594 277.707031 61.972656 278.398438 61.433594 C 279.085938 60.886719 279.75 60.269531 280.378906 59.582031 C 279.710938 60.222656 279.019531 60.78125 278.3125 61.257812 C 277.601562 61.730469 276.878906 62.113281 276.140625 62.390625 C 275.65625 62.574219 275.164062 62.710938 274.671875 62.804688 C 275.042969 62.667969 275.414062 62.519531 275.785156 62.332031 C 275.914062 62.273438 276.046875 62.191406 276.179688 62.117188 C 276.304688 62.035156 276.433594 61.960938 276.554688 61.871094 C 276.804688 61.703125 277.050781 61.515625 277.289062 61.320312 C 278.242188 60.535156 279.113281 59.5625 279.902344 58.5 C 280.695312 57.433594 281.414062 56.28125 282.023438 55.082031 C 281.34375 56.253906 280.570312 57.363281 279.742188 58.363281 C 278.914062 59.363281 278.023438 60.25 277.074219 60.925781 C 276.605469 61.261719 276.109375 61.566406 275.625 61.777344 C 275.128906 61.996094 274.609375 62.160156 274.089844 62.308594 C 273.570312 62.449219 273.046875 62.574219 272.527344 62.679688 C 272.402344 62.703125 272.277344 62.726562 272.152344 62.75 C 272.046875 62.671875 271.949219 62.59375 271.84375 62.515625 C 272.523438 62.375 273.191406 62.128906 273.832031 61.796875 C 274.515625 61.441406 275.167969 60.96875 275.78125 60.425781 C 276.390625 59.875 276.964844 59.25 277.484375 58.558594 C 276.917969 59.203125 276.3125 59.777344 275.679688 60.257812 C 275.046875 60.734375 274.390625 61.128906 273.71875 61.402344 C 273.042969 61.675781 272.355469 61.851562 271.671875 61.90625 C 271.613281 61.910156 271.550781 61.914062 271.492188 61.917969 C 271.710938 61.839844 271.933594 61.75 272.15625 61.660156 C 272.625 61.464844 273.09375 61.246094 273.554688 60.980469 C 273.785156 60.847656 274.011719 60.699219 274.238281 60.53125 C 274.351562 60.457031 274.457031 60.363281 274.5625 60.277344 C 274.667969 60.1875 274.78125 60.109375 274.882812 60.011719 C 275.304688 59.644531 275.703125 59.238281 276.09375 58.8125 C 276.480469 58.382812 276.851562 57.929688 277.210938 57.453125 C 277.925781 56.5 278.578125 55.464844 279.164062 54.378906 C 278.515625 55.433594 277.8125 56.421875 277.0625 57.3125 C 276.683594 57.757812 276.296875 58.179688 275.898438 58.570312 C 275.496094 58.957031 275.089844 59.320312 274.667969 59.640625 C 274.566406 59.726562 274.457031 59.796875 274.351562 59.875 C 274.246094 59.945312 274.140625 60.027344 274.03125 60.09375 C 273.820312 60.230469 273.601562 60.355469 273.378906 60.464844 C 272.933594 60.6875 272.480469 60.871094 272.019531 61.027344 C 271.511719 61.199219 271 61.339844 270.488281 61.460938 C 270.464844 61.445312 270.441406 61.425781 270.414062 61.40625 C 270.386719 61.382812 270.355469 61.359375 270.320312 61.335938 C 270.835938 61.140625 271.34375 60.882812 271.828125 60.582031 C 272.433594 60.195312 273.019531 59.738281 273.566406 59.214844 C 274.113281 58.691406 274.628906 58.105469 275.109375 57.472656 C 274.585938 58.058594 274.03125 58.589844 273.460938 59.046875 C 272.886719 59.507812 272.292969 59.886719 271.6875 60.191406 C 271.078125 60.492188 270.457031 60.714844 269.832031 60.84375 C 269.773438 60.859375 269.714844 60.871094 269.65625 60.878906 C 269.605469 60.847656 269.554688 60.8125 269.503906 60.78125 C 269.617188 60.738281 269.730469 60.691406 269.84375 60.648438 C 270.296875 60.457031 270.75 60.265625 271.210938 59.976562 C 271.644531 59.683594 272.0625 59.347656 272.460938 58.976562 C 273.261719 58.230469 273.976562 57.335938 274.601562 56.34375 C 275.222656 55.355469 275.765625 54.269531 276.199219 53.121094 C 275.691406 54.242188 275.089844 55.277344 274.421875 56.199219 C 273.753906 57.128906 273.015625 57.933594 272.21875 58.578125 C 271.820312 58.898438 271.410156 59.179688 270.988281 59.417969 C 270.589844 59.640625 270.136719 59.808594 269.691406 59.964844 C 269.363281 60.078125 269.035156 60.183594 268.703125 60.28125 C 268.664062 60.257812 268.628906 60.238281 268.59375 60.214844 C 268.871094 60.085938 269.140625 59.9375 269.40625 59.773438 C 270.042969 59.355469 270.640625 58.839844 271.171875 58.222656 C 271.707031 57.617188 272.183594 56.921875 272.585938 56.167969 C 272.128906 56.882812 271.609375 57.523438 271.046875 58.066406 C 270.492188 58.609375 269.882812 59.046875 269.257812 59.378906 C 268.84375 59.589844 268.414062 59.753906 267.988281 59.859375 L 267.984375 59.859375 C 267.886719 59.804688 267.792969 59.75 267.691406 59.699219 C 268.464844 59.3125 269.179688 58.746094 269.8125 58.070312 C 270.53125 57.304688 271.160156 56.410156 271.726562 55.4375 C 272.296875 54.464844 272.800781 53.414062 273.253906 52.296875 C 272.730469 53.378906 272.164062 54.382812 271.546875 55.292969 C 270.929688 56.199219 270.261719 57.015625 269.539062 57.679688 C 268.816406 58.34375 268.03125 58.839844 267.214844 59.101562 C 267.113281 59.136719 267.007812 59.160156 266.90625 59.1875 C 266.851562 59.207031 266.832031 59.210938 266.78125 59.21875 C 266.710938 59.183594 266.636719 59.144531 266.566406 59.113281 C 266.871094 58.941406 267.167969 58.738281 267.457031 58.515625 C 267.980469 58.101562 268.472656 57.613281 268.90625 57.050781 C 269.34375 56.496094 269.734375 55.871094 270.070312 55.199219 C 269.679688 55.832031 269.246094 56.398438 268.773438 56.890625 C 268.308594 57.386719 267.800781 57.796875 267.273438 58.128906 C 266.8125 58.410156 266.335938 58.632812 265.855469 58.789062 L 265.851562 58.789062 C 265.820312 58.773438 265.796875 58.761719 265.765625 58.75 C 266.542969 58.203125 267.214844 57.515625 267.824219 56.707031 C 268.433594 55.898438 268.960938 54.984375 269.417969 53.988281 C 269.875 52.988281 270.273438 51.914062 270.554688 50.75 C 270.199219 51.886719 269.734375 52.914062 269.226562 53.855469 C 268.714844 54.792969 268.140625 55.628906 267.515625 56.347656 C 266.890625 57.0625 266.191406 57.65625 265.480469 58.078125 C 265.289062 58.183594 265.074219 58.28125 264.859375 58.375 L 264.855469 58.375 C 264.800781 58.351562 264.746094 58.328125 264.6875 58.304688 C 264.585938 58.269531 264.484375 58.230469 264.378906 58.191406 C 264.640625 58 264.894531 57.789062 265.136719 57.5625 C 265.636719 57.09375 266.101562 56.546875 266.507812 55.933594 C 266.917969 55.320312 267.273438 54.644531 267.570312 53.910156 C 267.214844 54.605469 266.808594 55.230469 266.363281 55.777344 C 265.917969 56.328125 265.433594 56.796875 264.921875 57.183594 C 264.519531 57.484375 264.105469 57.738281 263.675781 57.9375 C 263.597656 57.910156 263.515625 57.882812 263.433594 57.859375 C 263.417969 57.855469 263.398438 57.847656 263.382812 57.84375 C 263.457031 57.773438 263.535156 57.703125 263.613281 57.636719 C 263.773438 57.484375 263.949219 57.332031 264.105469 57.152344 C 264.261719 56.976562 264.410156 56.792969 264.554688 56.605469 C 264.84375 56.21875 265.113281 55.808594 265.351562 55.363281 C 265.832031 54.480469 266.210938 53.488281 266.5 52.421875 C 266.785156 51.355469 266.984375 50.214844 267.09375 49 C 266.902344 50.203125 266.628906 51.3125 266.28125 52.328125 C 265.929688 53.34375 265.496094 54.257812 264.988281 55.042969 C 264.476562 55.835938 263.882812 56.484375 263.242188 57.003906 C 263 57.203125 262.753906 57.394531 262.507812 57.582031 C 262.382812 57.550781 262.261719 57.515625 262.136719 57.484375 C 262.347656 57.285156 262.546875 57.0625 262.734375 56.824219 C 263.160156 56.277344 263.515625 55.640625 263.792969 54.945312 C 264.074219 54.25 264.28125 53.492188 264.40625 52.695312 C 264.214844 53.472656 263.945312 54.1875 263.621094 54.828125 C 263.292969 55.464844 262.90625 56.023438 262.464844 56.480469 C 262.144531 56.8125 261.796875 57.09375 261.429688 57.320312 C 261.335938 57.296875 261.242188 57.277344 261.148438 57.261719 C 261.238281 57.152344 261.332031 57.042969 261.421875 56.933594 C 261.710938 56.570312 261.984375 56.179688 262.234375 55.746094 C 262.488281 55.308594 262.683594 54.835938 262.863281 54.335938 C 263.214844 53.34375 263.441406 52.253906 263.59375 51.101562 C 263.742188 49.945312 263.808594 48.722656 263.84375 47.425781 C 263.730469 48.71875 263.589844 49.925781 263.371094 51.046875 C 263.15625 52.164062 262.867188 53.195312 262.476562 54.101562 C 262.277344 54.550781 262.058594 54.984375 261.816406 55.355469 C 261.566406 55.730469 261.285156 56.078125 260.996094 56.398438 C 260.769531 56.644531 260.539062 56.882812 260.300781 57.101562 L 260.296875 57.101562 C 260.085938 57.066406 259.871094 57.03125 259.65625 57.007812 C 259.820312 56.796875 259.976562 56.574219 260.121094 56.339844 C 260.46875 55.753906 260.742188 55.09375 260.933594 54.382812 C 261.125 53.667969 261.238281 52.902344 261.265625 52.113281 C 261.171875 52.894531 260.992188 53.628906 260.746094 54.285156 C 260.503906 54.945312 260.183594 55.53125 259.8125 56.03125 C 259.550781 56.367188 259.269531 56.667969 258.964844 56.921875 C 258.890625 56.910156 258.820312 56.902344 258.746094 56.898438 C 258.871094 56.667969 258.992188 56.433594 259.109375 56.1875 C 259.292969 55.792969 259.46875 55.375 259.617188 54.929688 C 259.769531 54.480469 259.882812 54.019531 259.988281 53.535156 C 260.382812 51.605469 260.414062 49.394531 260.066406 47.054688 C 260.164062 48.242188 260.167969 49.375 260.085938 50.429688 C 260.003906 51.488281 259.828125 52.472656 259.578125 53.367188 C 259.449219 53.8125 259.304688 54.246094 259.140625 54.640625 C 258.976562 55.042969 258.789062 55.421875 258.585938 55.78125 C 258.378906 56.144531 258.160156 56.5 257.929688 56.832031 C 257.796875 56.828125 257.664062 56.824219 257.527344 56.824219 C 257.585938 56.722656 257.640625 56.613281 257.695312 56.507812 C 257.980469 55.917969 258.179688 55.253906 258.292969 54.550781 C 258.410156 53.847656 258.449219 53.105469 258.402344 52.351562 C 258.378906 53.105469 258.273438 53.824219 258.097656 54.480469 C 257.925781 55.132812 257.679688 55.726562 257.363281 56.230469 C 257.230469 56.441406 257.089844 56.636719 256.9375 56.816406 C 256.890625 56.816406 256.839844 56.816406 256.792969 56.816406 C 256.765625 56.816406 256.734375 56.816406 256.707031 56.820312 C 256.773438 56.652344 256.832031 56.484375 256.886719 56.3125 C 257.152344 55.457031 257.273438 54.523438 257.300781 53.546875 C 257.328125 52.574219 257.269531 51.5625 257.148438 50.511719 C 257.023438 49.464844 256.84375 48.375 256.589844 47.261719 C 256.777344 48.398438 256.882812 49.496094 256.9375 50.535156 C 256.988281 51.578125 256.980469 52.566406 256.890625 53.492188 C 256.800781 54.410156 256.625 55.269531 256.335938 56.007812 C 256.214844 56.308594 256.074219 56.589844 255.917969 56.847656 L 255.914062 56.847656 C 255.757812 56.851562 255.597656 56.863281 255.441406 56.878906 C 255.417969 56.878906 255.390625 56.882812 255.367188 56.886719 C 255.480469 56.578125 255.5625 56.253906 255.625 55.921875 C 255.730469 55.339844 255.742188 54.71875 255.6875 54.101562 C 255.625 53.480469 255.492188 52.855469 255.289062 52.257812 C 255.429688 52.882812 255.488281 53.507812 255.480469 54.101562 C 255.46875 54.695312 255.394531 55.261719 255.238281 55.765625 C 255.105469 56.199219 254.925781 56.597656 254.703125 56.941406 C 254.605469 56.953125 254.507812 56.964844 254.410156 56.976562 C 254.691406 55.964844 254.808594 54.84375 254.75 53.664062 C 254.671875 51.941406 254.210938 50.09375 253.4375 48.382812 C 254.085938 50.1875 254.390625 52.019531 254.339844 53.640625 C 254.304688 54.941406 254.039062 56.109375 253.601562 57.09375 C 253.496094 57.109375 253.394531 57.128906 253.289062 57.144531 C 253.363281 56.816406 253.414062 56.476562 253.441406 56.128906 C 253.519531 55.011719 253.339844 53.824219 252.957031 52.691406 C 253.210938 53.871094 253.238281 55.023438 253.042969 56.015625 C 252.953125 56.476562 252.816406 56.898438 252.636719 57.28125 C 252.515625 57.308594 252.394531 57.339844 252.269531 57.371094 C 252.300781 57.101562 252.320312 56.832031 252.328125 56.550781 C 252.351562 55.816406 252.277344 55.042969 252.105469 54.273438 C 251.9375 53.5 251.667969 52.734375 251.328125 52.003906 C 250.984375 51.277344 250.5625 50.582031 250.078125 49.960938 C 250.511719 50.644531 250.867188 51.378906 251.140625 52.121094 C 251.410156 52.863281 251.605469 53.613281 251.699219 54.339844 C 251.792969 55.070312 251.800781 55.769531 251.722656 56.433594 C 251.679688 56.824219 251.609375 57.207031 251.511719 57.566406 C 251.324219 57.621094 251.140625 57.675781 250.957031 57.730469 C 250.855469 57.320312 250.726562 56.90625 250.574219 56.5 C 250.21875 55.566406 249.730469 54.664062 249.140625 53.84375 C 249.625 54.753906 249.980469 55.695312 250.199219 56.617188 C 250.300781 57.054688 250.371094 57.488281 250.410156 57.90625 C 250.3125 57.9375 250.210938 57.972656 250.117188 58.007812 C 249.90625 57.882812 249.703125 57.722656 249.515625 57.535156 C 249.296875 57.320312 249.097656 57.074219 248.898438 56.804688 C 248.792969 56.667969 248.707031 56.535156 248.609375 56.398438 C 248.523438 56.253906 248.425781 56.117188 248.34375 55.964844 C 247.996094 55.371094 247.699219 54.71875 247.4375 54.027344 C 247.171875 53.332031 246.945312 52.601562 246.757812 51.832031 C 246.875 52.609375 247.039062 53.363281 247.242188 54.089844 C 247.445312 54.8125 247.695312 55.511719 248.003906 56.171875 C 248.074219 56.339844 248.164062 56.496094 248.246094 56.660156 C 248.335938 56.8125 248.425781 56.980469 248.515625 57.125 C 248.699219 57.425781 248.898438 57.726562 249.128906 58.003906 C 249.207031 58.097656 249.289062 58.1875 249.378906 58.277344 C 249.199219 58.34375 249.023438 58.417969 248.847656 58.492188 C 248.515625 58.332031 248.1875 58.132812 247.875 57.894531 C 247.214844 57.402344 246.601562 56.738281 246.097656 55.949219 C 246.488281 56.808594 247.023438 57.589844 247.65625 58.238281 C 247.839844 58.425781 248.03125 58.605469 248.230469 58.761719 C 248.117188 58.816406 248.003906 58.867188 247.894531 58.921875 C 247.6875 58.863281 247.484375 58.78125 247.285156 58.675781 C 246.738281 58.398438 246.242188 57.949219 245.808594 57.410156 C 245.382812 56.859375 245.015625 56.21875 244.710938 55.53125 C 244.410156 54.84375 244.15625 54.109375 243.980469 53.339844 C 244.085938 54.117188 244.277344 54.871094 244.523438 55.597656 C 244.773438 56.324219 245.097656 57.019531 245.511719 57.65625 C 245.929688 58.285156 246.449219 58.859375 247.0625 59.25 C 247.085938 59.265625 247.113281 59.285156 247.136719 59.296875 C 246.890625 59.421875 246.652344 59.550781 246.410156 59.683594 C 246.148438 59.621094 245.886719 59.535156 245.632812 59.421875 C 245.191406 59.238281 244.769531 58.953125 244.390625 58.597656 C 243.992188 58.246094 243.679688 57.789062 243.375 57.320312 C 243.621094 57.816406 243.886719 58.324219 244.265625 58.738281 C 244.621094 59.164062 245.042969 59.539062 245.503906 59.808594 C 245.617188 59.875 245.734375 59.941406 245.851562 60 C 245.769531 60.046875 245.6875 60.09375 245.609375 60.144531 C 245.367188 60.074219 245.125 59.984375 244.886719 59.878906 C 244.617188 59.746094 244.347656 59.597656 244.085938 59.421875 C 243.824219 59.242188 243.570312 59.039062 243.324219 58.816406 C 242.839844 58.363281 242.398438 57.820312 242.011719 57.230469 C 241.628906 56.632812 241.285156 55.988281 241.03125 55.304688 C 241.21875 56.003906 241.503906 56.675781 241.84375 57.320312 C 242.1875 57.960938 242.601562 58.5625 243.078125 59.101562 C 243.320312 59.371094 243.578125 59.617188 243.847656 59.847656 C 244.117188 60.070312 244.40625 60.269531 244.695312 60.449219 C 244.773438 60.492188 244.851562 60.535156 244.929688 60.578125 C 244.832031 60.636719 244.738281 60.699219 244.644531 60.761719 C 244.179688 60.644531 243.71875 60.449219 243.269531 60.195312 C 243.027344 60.058594 242.792969 59.902344 242.558594 59.746094 C 242.328125 59.582031 242.109375 59.394531 241.898438 59.183594 C 241.480469 58.765625 241.097656 58.265625 240.816406 57.707031 C 241.019531 58.289062 241.34375 58.847656 241.726562 59.347656 C 241.921875 59.597656 242.132812 59.835938 242.363281 60.050781 C 242.59375 60.265625 242.835938 60.449219 243.082031 60.621094 C 243.386719 60.832031 243.703125 61.019531 244.023438 61.175781 C 243.949219 61.226562 243.875 61.277344 243.804688 61.332031 C 243.558594 61.304688 243.316406 61.257812 243.074219 61.1875 C 242.8125 61.105469 242.550781 60.996094 242.292969 60.867188 C 242.039062 60.726562 241.789062 60.566406 241.546875 60.378906 C 241.0625 60.003906 240.613281 59.535156 240.214844 59.015625 C 239.816406 58.496094 239.449219 57.925781 239.160156 57.320312 C 239.386719 57.941406 239.699219 58.546875 240.058594 59.117188 C 240.421875 59.6875 240.84375 60.226562 241.332031 60.6875 C 241.578125 60.917969 241.839844 61.125 242.109375 61.3125 C 242.386719 61.492188 242.667969 61.648438 242.964844 61.777344 C 243.015625 61.800781 243.0625 61.820312 243.113281 61.839844 C 243.011719 61.914062 242.914062 61.992188 242.816406 62.066406 C 242.378906 62.015625 241.933594 61.890625 241.492188 61.722656 C 241.253906 61.621094 241.019531 61.519531 240.792969 61.394531 C 240.566406 61.265625 240.347656 61.109375 240.136719 60.933594 C 239.71875 60.574219 239.339844 60.128906 239.035156 59.625 C 239.269531 60.15625 239.597656 60.660156 239.992188 61.101562 C 240.386719 61.542969 240.878906 61.917969 241.367188 62.160156 C 241.644531 62.304688 241.929688 62.433594 242.21875 62.535156 L 242.207031 62.546875 C 241.828125 62.570312 241.4375 62.527344 241.046875 62.425781 C 240.796875 62.359375 240.546875 62.265625 240.300781 62.152344 C 240.058594 62.035156 239.816406 61.890625 239.582031 61.734375 C 238.636719 61.085938 237.78125 60.121094 237.1875 59.011719 C 237.660156 60.152344 238.441406 61.242188 239.386719 62.054688 C 239.625 62.257812 239.871094 62.441406 240.136719 62.605469 C 240.398438 62.769531 240.667969 62.90625 240.945312 63.015625 C 241.109375 63.082031 241.277344 63.140625 241.449219 63.183594 C 241.421875 63.210938 241.394531 63.234375 241.363281 63.261719 C 241.050781 63.292969 240.738281 63.296875 240.417969 63.265625 C 240.007812 63.230469 239.597656 63.140625 239.199219 62.976562 C 238.800781 62.816406 238.425781 62.570312 238.050781 62.285156 C 237.679688 61.988281 237.324219 61.644531 237.027344 61.234375 C 237.253906 61.683594 237.5625 62.097656 237.898438 62.476562 C 238.066406 62.660156 238.242188 62.84375 238.441406 63.003906 C 238.640625 63.160156 238.847656 63.300781 239.058594 63.417969 C 239.382812 63.597656 239.71875 63.734375 240.058594 63.832031 C 239.808594 63.949219 239.542969 64.035156 239.265625 64.0625 C 238.792969 64.125 238.289062 64.042969 237.800781 63.847656 C 237.3125 63.648438 236.832031 63.347656 236.378906 62.984375 C 235.921875 62.621094 235.480469 62.207031 235.066406 61.746094 C 235.433594 62.242188 235.839844 62.707031 236.269531 63.132812 C 236.699219 63.554688 237.164062 63.9375 237.675781 64.222656 C 238.191406 64.507812 238.761719 64.683594 239.335938 64.683594 C 239.421875 64.6875 239.511719 64.683594 239.601562 64.675781 C 239.695312 64.671875 239.789062 64.660156 239.882812 64.644531 C 240.171875 64.476562 240.460938 64.308594 240.746094 64.144531 C 240.816406 64.101562 240.886719 64.058594 240.957031 64.011719 C 241.027344 63.96875 241.097656 63.925781 241.171875 63.878906 C 241.375 63.746094 241.574219 63.609375 241.773438 63.472656 C 241.835938 63.429688 241.898438 63.386719 241.960938 63.34375 C 241.980469 63.328125 242 63.316406 242.019531 63.304688 C 242.308594 63.105469 242.601562 62.914062 242.898438 62.726562 L 242.902344 62.730469 L 242.933594 62.734375 L 242.921875 62.714844 C 243.21875 62.527344 243.519531 62.339844 243.820312 62.15625 C 243.863281 62.132812 243.90625 62.109375 243.945312 62.082031 C 243.976562 62.066406 244.003906 62.046875 244.03125 62.035156 C 244.328125 61.859375 244.625 61.6875 244.929688 61.523438 C 244.945312 61.511719 244.964844 61.5 244.984375 61.488281 C 245.285156 61.324219 245.59375 61.160156 245.90625 61 C 245.921875 60.988281 245.9375 60.980469 245.957031 60.972656 C 246.03125 60.933594 246.105469 60.898438 246.179688 60.859375 C 246.410156 60.746094 246.640625 60.636719 246.871094 60.53125 C 246.933594 60.5 246.996094 60.472656 247.058594 60.445312 C 247.4375 60.269531 247.816406 60.105469 248.203125 59.945312 C 248.285156 59.914062 248.371094 59.882812 248.453125 59.847656 C 248.488281 59.832031 248.527344 59.820312 248.566406 59.804688 C 248.824219 59.703125 249.085938 59.609375 249.347656 59.515625 C 249.363281 59.507812 249.375 59.503906 249.390625 59.5 C 249.683594 59.398438 249.980469 59.296875 250.28125 59.207031 C 250.335938 59.1875 250.390625 59.171875 250.441406 59.15625 C 250.484375 59.144531 250.523438 59.132812 250.5625 59.117188 L 250.585938 59.113281 C 250.785156 59.054688 250.980469 59.003906 251.179688 58.949219 C 251.214844 58.9375 251.253906 58.929688 251.289062 58.917969 C 251.347656 58.90625 251.410156 58.886719 251.472656 58.871094 C 251.5625 58.851562 251.652344 58.824219 251.746094 58.804688 C 251.824219 58.785156 251.902344 58.765625 251.980469 58.75 C 252.238281 58.6875 252.5 58.632812 252.757812 58.585938 L 252.761719 58.585938 C 252.847656 58.566406 252.9375 58.550781 253.023438 58.535156 C 253.148438 58.515625 253.273438 58.496094 253.398438 58.472656 C 253.421875 58.472656 253.445312 58.46875 253.46875 58.464844 C 253.597656 58.445312 253.722656 58.425781 253.855469 58.410156 C 254.089844 58.375 254.328125 58.347656 254.5625 58.320312 L 254.566406 58.320312 C 254.601562 58.316406 254.640625 58.3125 254.675781 58.308594 C 254.78125 58.300781 254.878906 58.289062 254.984375 58.28125 C 255.171875 58.265625 255.363281 58.253906 255.554688 58.246094 C 255.660156 58.234375 255.765625 58.230469 255.875 58.226562 C 256.058594 58.21875 256.242188 58.21875 256.425781 58.214844 C 256.542969 58.214844 256.65625 58.210938 256.773438 58.210938 C 256.792969 58.210938 256.8125 58.207031 256.832031 58.207031 C 256.941406 58.210938 257.050781 58.214844 257.160156 58.214844 C 257.410156 58.21875 257.664062 58.226562 257.914062 58.242188 C 257.980469 58.246094 258.046875 58.246094 258.113281 58.253906 C 258.164062 58.257812 258.214844 58.257812 258.269531 58.261719 C 258.488281 58.277344 258.699219 58.292969 258.917969 58.3125 C 258.972656 58.316406 259.027344 58.324219 259.082031 58.328125 C 259.382812 58.359375 259.679688 58.394531 259.972656 58.4375 C 260.1875 58.46875 260.402344 58.5 260.609375 58.539062 C 260.769531 58.5625 260.929688 58.59375 261.089844 58.625 C 261.175781 58.640625 261.261719 58.65625 261.34375 58.675781 C 261.621094 58.734375 261.890625 58.792969 262.160156 58.855469 L 262.164062 58.855469 C 262.398438 58.914062 262.628906 58.976562 262.863281 59.039062 C 262.898438 59.050781 262.941406 59.058594 262.980469 59.070312 C 263.195312 59.132812 263.40625 59.195312 263.621094 59.261719 C 263.847656 59.328125 264.070312 59.402344 264.289062 59.476562 C 264.367188 59.503906 264.441406 59.527344 264.515625 59.558594 L 264.519531 59.558594 C 264.695312 59.613281 264.871094 59.679688 265.046875 59.746094 L 265.050781 59.746094 C 265.152344 59.78125 265.253906 59.824219 265.359375 59.867188 L 265.363281 59.867188 C 265.613281 59.960938 265.863281 60.0625 266.109375 60.164062 C 266.488281 60.324219 266.863281 60.492188 267.234375 60.667969 L 267.21875 60.671875 L 267.234375 60.667969 C 267.433594 60.761719 267.632812 60.855469 267.828125 60.953125 C 267.847656 60.964844 267.871094 60.980469 267.890625 60.988281 C 268.03125 61.0625 268.171875 61.136719 268.3125 61.207031 C 268.523438 61.316406 268.726562 61.425781 268.929688 61.542969 C 269.011719 61.589844 269.09375 61.632812 269.175781 61.679688 L 269.179688 61.679688 C 269.207031 61.695312 269.226562 61.707031 269.25 61.71875 C 269.300781 61.75 269.347656 61.777344 269.398438 61.808594 C 269.605469 61.921875 269.808594 62.042969 270.003906 62.175781 C 270.082031 62.222656 270.160156 62.273438 270.238281 62.320312 C 270.410156 62.433594 270.578125 62.542969 270.746094 62.65625 L 270.75 62.65625 C 270.875 62.738281 270.992188 62.820312 271.113281 62.902344 C 271.179688 62.945312 271.242188 62.988281 271.304688 63.03125 C 271.570312 63.207031 271.835938 63.378906 272.105469 63.539062 L 272.132812 63.554688 C 272.21875 63.605469 272.304688 63.65625 272.390625 63.707031 C 272.558594 63.800781 272.722656 63.890625 272.894531 63.976562 C 273 64.027344 273.105469 64.082031 273.214844 64.128906 C 273.386719 64.207031 273.558594 64.273438 273.734375 64.335938 C 273.753906 64.34375 273.777344 64.351562 273.796875 64.359375 C 273.925781 64.40625 274.054688 64.445312 274.1875 64.484375 L 274.191406 64.484375 C 274.257812 64.503906 274.324219 64.523438 274.390625 64.539062 C 274.910156 64.671875 275.441406 64.738281 275.976562 64.75 L 275.980469 64.75 C 276.261719 64.753906 276.546875 64.742188 276.832031 64.710938 L 276.851562 64.710938 L 276.871094 64.703125 L 276.882812 64.703125 C 277.582031 64.535156 278.265625 64.292969 278.929688 63.976562 C 280.460938 63.253906 281.886719 62.140625 283.242188 60.785156 C 281.816406 62.042969 280.34375 63.007812 278.816406 63.574219 C 277.890625 63.921875 276.945312 64.125 276 64.179688 " fill-opacity="1" fill-rule="nonzero"/></g></g></g><g fill="#dd9b9a" fill-opacity="1"><g transform="translate(124.340947, 29.400035)"><g><path d="M 10.644531 -3.167969 L 9.472656 -3.167969 C 9.105469 -2.496094 8.605469 -1.949219 7.964844 -1.554688 C 7.324219 -1.140625 6.609375 -0.945312 5.847656 -0.945312 C 4.707031 -0.945312 3.730469 -1.355469 2.925781 -2.207031 C 2.132812 -3.015625 1.75 -4.003906 1.75 -5.164062 C 1.75 -6.320312 2.132812 -7.308594 2.925781 -8.132812 C 3.289062 -8.511719 3.730469 -8.816406 4.234375 -9.046875 C 4.722656 -9.273438 5.207031 -9.398438 5.695312 -9.398438 C 6.167969 -9.398438 6.578125 -9.335938 6.945312 -9.230469 C 8.054688 -8.894531 8.894531 -8.222656 9.457031 -7.203125 L 10.628906 -7.203125 C 10.234375 -8.179688 9.609375 -8.96875 8.742188 -9.578125 C 7.859375 -10.1875 6.898438 -10.492188 5.847656 -10.492188 C 4.402344 -10.492188 3.183594 -9.960938 2.179688 -8.910156 C 1.707031 -8.421875 1.339844 -7.84375 1.082031 -7.203125 C 0.808594 -6.5625 0.683594 -5.878906 0.683594 -5.164062 C 0.683594 -3.699219 1.171875 -2.46875 2.179688 -1.429688 C 3.183594 -0.367188 4.402344 0.152344 5.847656 0.152344 C 6.898438 0.152344 7.859375 -0.152344 8.757812 -0.761719 C 9.625 -1.371094 10.25 -2.164062 10.644531 -3.167969 Z M 10.644531 -3.167969 "/></g></g></g><g fill="#dd9b9a" fill-opacity="1"><g transform="translate(145.90136, 29.400035)"><g><path d="M 10.265625 -5.207031 C 10.265625 -4.019531 9.839844 -3.015625 9.015625 -2.191406 C 8.179688 -1.355469 7.171875 -0.945312 6 -0.945312 C 4.828125 -0.945312 3.824219 -1.355469 3 -2.191406 C 2.164062 -3.015625 1.75 -4.019531 1.75 -5.207031 C 1.75 -6.367188 2.164062 -7.371094 3 -8.207031 C 3.824219 -9.03125 4.828125 -9.457031 6 -9.457031 C 7.171875 -9.457031 8.179688 -9.03125 9.015625 -8.207031 C 9.839844 -7.371094 10.265625 -6.367188 10.265625 -5.207031 Z M 11.332031 -5.207031 C 11.332031 -5.941406 11.179688 -6.625 10.90625 -7.28125 C 10.628906 -7.917969 10.25 -8.484375 9.761719 -8.96875 C 9.273438 -9.441406 8.710938 -9.824219 8.070312 -10.097656 C 7.417969 -10.371094 6.730469 -10.523438 6 -10.523438 C 5.269531 -10.523438 4.570312 -10.371094 3.929688 -10.097656 C 3.289062 -9.824219 2.726562 -9.441406 2.238281 -8.96875 C 1.75 -8.484375 1.371094 -7.917969 1.097656 -7.28125 C 0.824219 -6.625 0.683594 -5.941406 0.683594 -5.207031 C 0.683594 -4.476562 0.824219 -3.777344 1.097656 -3.136719 C 1.371094 -2.480469 1.75 -1.917969 2.238281 -1.429688 C 2.726562 -0.945312 3.289062 -0.5625 3.929688 -0.289062 C 4.570312 -0.015625 5.269531 0.121094 6 0.121094 C 6.730469 0.121094 7.417969 -0.015625 8.070312 -0.289062 C 8.710938 -0.5625 9.273438 -0.945312 9.761719 -1.429688 C 10.25 -1.917969 10.628906 -2.480469 10.90625 -3.136719 C 11.179688 -3.777344 11.332031 -4.476562 11.332031 -5.207031 Z M 11.332031 -5.207031 "/></g></g></g><g fill="#dd9b9a" fill-opacity="1"><g transform="translate(168.375056, 29.400035)"><g><path d="M 2.816406 -3.808594 L 4.707031 -8.574219 L 6.578125 -3.808594 Z M 9.246094 0 L 4.707031 -11.070312 L 0.152344 0 L 1.308594 0 L 2.421875 -2.816406 L 6.976562 -2.816406 L 8.085938 0 Z M 9.246094 0 "/></g></g></g><g fill="#dd9b9a" fill-opacity="1"><g transform="translate(188.230683, 29.400035)"><g><path d="M 4.003906 -4.875 C 5.34375 -4.554688 6.257812 -4.203125 6.746094 -3.808594 C 7.082031 -3.535156 7.25 -3.183594 7.25 -2.757812 C 7.25 -2.332031 7.15625 -1.980469 6.976562 -1.734375 C 6.519531 -1.097656 5.695312 -0.777344 4.539062 -0.777344 C 2.925781 -0.777344 2.011719 -1.324219 1.8125 -2.421875 L 0.5625 -2.421875 C 0.929688 -0.671875 2.253906 0.199219 4.539062 0.199219 C 5.558594 0.199219 6.410156 -0.015625 7.097656 -0.472656 C 7.917969 -1.003906 8.347656 -1.796875 8.347656 -2.832031 C 8.347656 -3.683594 8.011719 -4.339844 7.339844 -4.796875 C 6.867188 -5.132812 6.105469 -5.4375 5.054688 -5.710938 C 3.988281 -5.984375 3.304688 -6.214844 2.984375 -6.382812 C 2.285156 -6.730469 1.933594 -7.21875 1.949219 -7.859375 C 1.949219 -8.195312 2.011719 -8.484375 2.164062 -8.695312 C 2.558594 -9.289062 3.257812 -9.59375 4.265625 -9.59375 C 5.679688 -9.59375 6.488281 -9.136719 6.699219 -8.253906 L 7.859375 -8.253906 C 7.476562 -9.746094 6.273438 -10.507812 4.265625 -10.507812 C 3.351562 -10.507812 2.542969 -10.265625 1.875 -9.777344 C 1.1875 -9.289062 0.835938 -8.574219 0.835938 -7.597656 C 0.835938 -6.273438 1.902344 -5.359375 4.003906 -4.875 Z M 4.003906 -4.875 "/></g></g></g><g fill="#dd9b9a" fill-opacity="1"><g transform="translate(207.431801, 29.400035)"><g><path d="M 0.304688 -9.398438 L 2.816406 -9.398438 L 2.816406 -0.03125 L 3.882812 -0.03125 L 3.882812 -9.398438 L 6.394531 -9.398438 L 6.394531 -10.386719 L 0.304688 -10.386719 Z M 0.304688 -9.398438 "/></g></g></g><g fill="#dd9b9a" fill-opacity="1"><g transform="translate(224.593263, 29.400035)"><g><path d="M 2.816406 -3.808594 L 4.707031 -8.574219 L 6.578125 -3.808594 Z M 9.246094 0 L 4.707031 -11.070312 L 0.152344 0 L 1.308594 0 L 2.421875 -2.816406 L 6.976562 -2.816406 L 8.085938 0 Z M 9.246094 0 "/></g></g></g><g fill="#dd9b9a" fill-opacity="1"><g transform="translate(244.448887, 29.400035)"><g><path d="M 2.207031 -1.066406 L 2.207031 -10.355469 L 1.140625 -10.355469 L 1.140625 0 L 5.910156 0 L 5.910156 -1.066406 Z M 2.207031 -1.066406 "/></g></g></g></svg>